<svg width="20" height="20" viewBox="0 0 20 20" fill="none" xmlns="http://www.w3.org/2000/svg">
<path d="M19.99 4.547C19.9817 4.11797 19.9473 3.68985 19.887 3.265C19.8152 2.8871 19.6931 2.52052 19.524 2.175C19.1539 1.4443 18.5605 0.850575 17.83 0.48C17.4867 0.311713 17.1225 0.189972 16.747 0.118C16.3189 0.0564826 15.8874 0.021416 15.455 0.013C15.272 0.00600001 15.035 0.00300002 14.925 0.00300002L5.077 0C4.967 0 4.73 0.00299999 4.547 0.00999999C4.11797 0.0182666 3.68984 0.0526636 3.265 0.113C2.8871 0.18484 2.52052 0.306923 2.175 0.476C1.44434 0.846201 0.850632 1.43956 0.48 2.17C0.311757 2.51332 0.190018 2.87752 0.118 3.253C0.0562033 3.68109 0.0208031 4.11257 0.0120001 4.545C0.00600008 4.728 0.00200009 4.965 0.00200009 5.075L0 14.923C0 15.033 0.00299999 15.27 0.00999999 15.453C0.0182666 15.882 0.0526636 16.3102 0.113 16.735C0.184851 17.1129 0.306934 17.4795 0.476 17.825C0.846201 18.5557 1.43956 19.1494 2.17 19.52C2.51332 19.6882 2.87753 19.81 3.253 19.882C3.6811 19.9435 4.11258 19.9786 4.545 19.987C4.728 19.994 4.965 19.997 5.075 19.997L14.923 19.999C15.033 19.999 15.27 19.996 15.453 19.989C15.882 19.9807 16.3102 19.9463 16.735 19.886C17.1129 19.8141 17.4795 19.692 17.825 19.523C18.556 19.153 19.1501 18.5596 19.521 17.829C19.6893 17.4857 19.811 17.1215 19.883 16.746C19.9448 16.3179 19.9802 15.8864 19.989 15.454C19.995 15.271 19.999 15.034 19.999 14.924L20 5.077C20 4.967 19.997 4.73 19.99 4.547ZM10.217 16.957H10.214C9.02366 16.9568 7.85235 16.6583 6.807 16.089L3.027 17.08L4.039 13.387C3.25545 12.0273 2.94237 10.4471 3.1483 8.89139C3.35423 7.33566 4.06765 5.89133 5.17797 4.78233C6.28829 3.67333 7.73347 2.96162 9.28944 2.75755C10.8454 2.55347 12.4252 2.86843 13.784 3.65359C15.1427 4.43876 16.2045 5.65026 16.8046 7.10026C17.4048 8.55026 17.5098 10.1578 17.1034 11.6735C16.697 13.1893 15.8018 14.5286 14.5568 15.4839C13.3117 16.4391 11.7863 16.9569 10.217 16.957Z" fill="white"/>
<path d="M10.2202 3.9009C9.16132 3.90059 8.12166 4.18398 7.20937 4.72159C6.29708 5.2592 5.54547 6.0314 5.03272 6.95789C4.51996 7.88438 4.26478 8.93132 4.29372 9.98984C4.32265 11.0484 4.63464 12.0798 5.19724 12.9769L5.33824 13.2009L4.73924 15.3869L6.98224 14.7989L7.19824 14.9269C8.11133 15.4677 9.15303 15.753 10.2142 15.7529H10.2172C11.789 15.7532 13.2966 15.129 14.4082 14.0178C15.5198 12.9065 16.1445 11.3992 16.1447 9.8274C16.145 8.2556 15.5209 6.74806 14.4096 5.63644C13.2984 4.52482 11.791 3.90017 10.2192 3.8999L10.2202 3.9009ZM13.7042 12.3709C13.5732 12.5874 13.3987 12.7744 13.1918 12.9201C12.985 13.0659 12.7502 13.1673 12.5022 13.2179C12.1279 13.2821 11.7437 13.2581 11.3802 13.1479C11.0355 13.0405 10.6967 12.915 10.3652 12.7719C9.13496 12.1545 8.08633 11.2279 7.32224 10.0829C6.90541 9.55287 6.6524 8.91268 6.59424 8.2409C6.58943 7.96362 6.64244 7.68837 6.74987 7.4327C6.85731 7.17703 7.01682 6.94653 7.21824 6.7559C7.27776 6.688 7.35069 6.63313 7.43243 6.59476C7.51417 6.55638 7.60297 6.53532 7.69324 6.5329C7.81124 6.5329 7.93024 6.5329 8.03424 6.5389C8.14424 6.5439 8.29024 6.4969 8.43424 6.8449C8.58424 7.2009 8.94024 8.0779 8.98424 8.1669C9.01248 8.21356 9.02864 8.26653 9.03126 8.321C9.03388 8.37548 9.02287 8.42975 8.99924 8.4789C8.95437 8.58589 8.89443 8.6859 8.82124 8.7759C8.73124 8.8799 8.63424 9.0079 8.55424 9.0879C8.46424 9.1769 8.37224 9.2729 8.47524 9.4509C8.74276 9.90896 9.07673 10.3248 9.46624 10.6849C9.88887 11.0606 10.3738 11.3598 10.8992 11.5689C11.0772 11.6589 11.1812 11.6429 11.2852 11.5239C11.3892 11.4049 11.7302 11.0039 11.8492 10.8259C11.9682 10.6479 12.0862 10.6779 12.2492 10.7369C12.4122 10.7959 13.2892 11.2269 13.4672 11.3169C13.6452 11.4069 13.7642 11.4499 13.8082 11.5239C13.857 11.8103 13.8209 12.1048 13.7042 12.3709Z" fill="white"/>
</svg>
